<svg xmlns="http://www.w3.org/2000/svg" viewBox="0 0 512 512" fill="none" role="img" aria-label="Pleiades mark">
  <defs>
    <linearGradient id="metal" x1="120" y1="80" x2="392" y2="432" gradientUnits="userSpaceOnUse">
      <stop offset="0%" stop-color="#ffffff"/>
      <stop offset="42%" stop-color="#e4e4e7"/>
      <stop offset="100%" stop-color="#71717a"/>
    </linearGradient>
  </defs>
  <path
    fill="url(#metal)"
    fill-rule="evenodd"
    clip-rule="evenodd"
    d="M112 72h152c88.4 0 160 71.6 160 160s-71.6 160-160 160H176v48H112V72zm64 64v192h88c70.7 0 128-57.3 128-128S334.7 72 264 72h-88z
    M256 238 L250.3 213.9 L229.1 226.9 L242.1 205.7 L218 200 L242.1 194.3 L229.1 173.1 L250.3 186.1 L256 162 L261.7 186.1 L282.9 173.1 L269.9 194.3 L294 200 L269.9 205.7 L282.9 226.9 L261.7 213.9 Z"
  />
</svg>
