<svg xmlns="http://www.w3.org/2000/svg" viewBox="0 0 640 760" fill="none" role="img" aria-label="Pleiades logo">
  <defs>
    <linearGradient id="metal" x1="160" y1="40" x2="480" y2="480" gradientUnits="userSpaceOnUse">
      <stop offset="0%" stop-color="#ffffff"/>
      <stop offset="42%" stop-color="#e4e4e7"/>
      <stop offset="100%" stop-color="#71717a"/>
    </linearGradient>
    <linearGradient id="star" x1="280" y1="120" x2="360" y2="280" gradientUnits="userSpaceOnUse">
      <stop offset="0%" stop-color="#ffffff"/>
      <stop offset="100%" stop-color="#a1a1aa"/>
    </linearGradient>
  </defs>
  <g transform="translate(64 0) scale(1)">
    <path
      fill="url(#metal)"
      d="M112 72h152c88.4 0 160 71.6 160 160s-71.6 160-160 160H176v48H112V72zm64 64v192h88c70.7 0 128-57.3 128-128S334.7 72 264 72h-88z"
    />
    <path
      fill="url(#star)"
      d="M256 156l14 34 36 3-27 22 8 35-31-20-31 20 8-35-27-22 36-3z"
    />
    <rect x="248" y="236" width="16" height="64" rx="2" fill="url(#star)"/>
  </g>
  <text
    x="320"
    y="620"
    text-anchor="middle"
    fill="#ffffff"
    font-family="Arial, Helvetica, sans-serif"
    font-size="88"
    font-weight="700"
    letter-spacing="-0.5"
  >
    Pleiades
  </text>
</svg>
