<svg xmlns="http://www.w3.org/2000/svg" viewBox="0 0 640 760" fill="none" role="img" aria-label="Pleiades logo">
  <defs>
    <linearGradient id="metal" x1="160" y1="40" x2="480" y2="480" gradientUnits="userSpaceOnUse">
      <stop offset="0%" stop-color="#ffffff"/>
      <stop offset="42%" stop-color="#e4e4e7"/>
      <stop offset="100%" stop-color="#71717a"/>
    </linearGradient>
  </defs>
  <g transform="translate(64 0)">
    <path
      fill="url(#metal)"
      fill-rule="evenodd"
      clip-rule="evenodd"
      d="M112 72h152c88.4 0 160 71.6 160 160s-71.6 160-160 160H176v48H112V72zm64 64v192h88c70.7 0 128-57.3 128-128S334.7 72 264 72h-88z
      M256 238 L250.3 213.9 L229.1 226.9 L242.1 205.7 L218 200 L242.1 194.3 L229.1 173.1 L250.3 186.1 L256 162 L261.7 186.1 L282.9 173.1 L269.9 194.3 L294 200 L269.9 205.7 L282.9 226.9 L261.7 213.9 Z"
    />
  </g>
  <text
    x="320"
    y="620"
    text-anchor="middle"
    fill="#ffffff"
    font-family="Arial, Helvetica, sans-serif"
    font-size="88"
    font-weight="700"
    letter-spacing="-0.5"
  >
    Pleiades
  </text>
</svg>
